<?xml version="1.0" encoding="UTF-8"?>
<svg xmlns="http://www.w3.org/2000/svg" xmlns:xlink="http://www.w3.org/1999/xlink" width="19px" height="19px" viewBox="0 0 19 19" version="1.1">
<g id="surface1">
<path style=" stroke:none;fill-rule:nonzero;fill:rgb(95.294118%,62.352941%,35.294118%);fill-opacity:1;" d="M 9.5 0 C 14.746094 0 19 4.253906 19 9.5 C 19 14.746094 14.746094 19 9.5 19 C 4.253906 19 0 14.746094 0 9.5 C 0 4.253906 4.253906 0 9.5 0 Z M 9.5 0 "/>
<path style=" stroke:none;fill-rule:nonzero;fill:rgb(100%,100%,100%);fill-opacity:1;" d="M 9.5 3.800781 C 12.648438 3.800781 15.199219 6.351562 15.199219 9.5 C 15.199219 12.648438 12.648438 15.199219 9.5 15.199219 C 6.351562 15.199219 3.800781 12.648438 3.800781 9.5 C 3.800781 6.351562 6.351562 3.800781 9.5 3.800781 Z M 9.5 3.800781 "/>
<path style=" stroke:none;fill-rule:nonzero;fill:rgb(95.294118%,62.352941%,35.294118%);fill-opacity:1;" d="M 9.5 5.699219 C 11.597656 5.699219 13.300781 7.402344 13.300781 9.5 C 13.300781 11.597656 11.597656 13.300781 9.5 13.300781 C 7.402344 13.300781 5.699219 11.597656 5.699219 9.5 C 5.699219 7.402344 7.402344 5.699219 9.5 5.699219 Z M 9.5 5.699219 "/>
</g>
</svg>